<?xml version="1.0" standalone="no"?><!DOCTYPE svg PUBLIC "-//W3C//DTD SVG 1.1//EN" "http://www.w3.org/Graphics/SVG/1.1/DTD/svg11.dtd"><svg t="1653116054345" class="icon" viewBox="0 0 1024 1024" version="1.1" xmlns="http://www.w3.org/2000/svg" p-id="5522" xmlns:xlink="http://www.w3.org/1999/xlink" width="25" height="25"><defs><style type="text/css">@font-face { font-family: feedback-iconfont; src: url("//at.alicdn.com/t/font_1031158_u69w8yhxdu.woff2?t=1630033759944") format("woff2"), url("//at.alicdn.com/t/font_1031158_u69w8yhxdu.woff?t=1630033759944") format("woff"), url("//at.alicdn.com/t/font_1031158_u69w8yhxdu.ttf?t=1630033759944") format("truetype"); }
</style></defs><path d="M0 512a512 512 0 1 0 1024 0A512 512 0 1 0 0 512z" fill="#D90C0C" p-id="5523"></path><path d="M872 816.848l-260.952-89.496L627.704 828l-83.288-83.872L394.504 856 383.4 833.6l38.864-95.088L128 744.128l83.28-28 133.256-44.752-66.624-16.8 88.8-11.2-105.456-50.272 16.656-5.6h66.624l72.176 16.8-5.552-11.2-16.656-11.2 16.656-5.6-11.104-11.2-11.104-16.8-5.552-5.6h-16.656l-11.104-5.6-16.656-33.6-5.552-5.6-16.656 5.6s-49.968 5.6-66.624-16.8-26.176-24-33.312-39.152a57.008 57.008 0 0 1 11.104-61.528c18.88-21.256 8.728-27.2 22.208-39.152a26.752 26.752 0 0 1 27.76-5.6l5.552-83.904s32.2-92.72 111.04-89.368 116.6 35.8 122.152 50.344c0 0 40-61.528 111.048-39.152 0 0 67.736 17.896 66.624 100.68 0 0 69.96-13.424 83.28 55.936 0 0 7.776 66-66.624 72.712 0 0 13.328 45.864-22.208 72.72a88.672 88.672 0 0 1-72.176 16.8s-13.328 48.104-38.864 55.936-27.76 22.4-27.76 22.4h16.656s16.656-14.544 22.208-5.6 11.104 16.8 11.104 16.8l16.656-16.8 77.728-28-44.416 78.312 111.048-5.6-55.52 39.152 83.28 39.152-111.048-11.2zM477.792 520.392v-22.4h-38.864l-11.104 11.2 11.104 16.8 5.552 11.2h33.312l5.552-5.6z m-55.52 50.344l11.104 5.6h16.656v-16.8l-11.104 5.6z m210.984 106.272a313.384 313.384 0 0 1 88.8 0l-55.52-22.4 49.968-22.4-88.8 5.6-5.552-11.2 38.864-55.936-61.072 28H583.28v-22.4l-22.208 11.2h-27.76v-5.6l-22.208-5.6 5.552 11.2-44.416 11.2h-33.312l16.656 16.8v11.2l-105.496-16.8 22.208 11.2 27.76 5.6 11.104 22.4H383.4l16.656 5.6H411.2l-5.552 11.2-194.368 61.48 222.088-11.2v11.2L411.2 822.44l127.664-89.496h11.104l49.968 44.744-5.536-61.528h27.76l161.04 55.936z m-94.4-5.6l-11.104-11.2 5.552-11.2v-5.6h16.656l5.552 16.8-11.104 5.6z m-22.208-44.752l-5.552-11.2 5.552-16.8 11.104-5.6 11.104 11.2v11.2l-5.552 11.2h-16.648z m-5.552 11.2L500 649.04l-11.104 5.6-22.208-11.2v-16.8l16.656-16.8 16.656 5.6 11.104 11.2v11.2z" fill="#FFFFFF" p-id="5524"></path></svg>